<?xml version="1.0" encoding="UTF-8"?>
<!DOCTYPE svg PUBLIC "-//W3C//DTD SVG 1.1//EN" "http://www.w3.org/Graphics/SVG/1.1/DTD/svg11.dtd">
<svg xmlns="http://www.w3.org/2000/svg" version="1.1" width="500px" height="500px" style="shape-rendering:geometricPrecision; text-rendering:geometricPrecision; image-rendering:optimizeQuality; fill-rule:evenodd; clip-rule:evenodd" xmlns:xlink="http://www.w3.org/1999/xlink">
<g><path style="opacity:1" fill="#001822" d="M -0.5,-0.5 C 166.167,-0.5 332.833,-0.5 499.5,-0.5C 499.5,166.167 499.5,332.833 499.5,499.5C 332.833,499.5 166.167,499.5 -0.5,499.5C -0.5,332.833 -0.5,166.167 -0.5,-0.5 Z"/></g>
<g><path style="opacity:1" fill="#95d656" d="M 323.5,281.5 C 325.914,280.089 327.581,278.089 328.5,275.5C 336.364,266.458 341.864,256.124 345,244.5C 346.613,236.23 345.28,228.563 341,221.5C 339.961,220.29 338.794,219.29 337.5,218.5C 341.084,201.86 344.75,185.527 348.5,169.5C 348.457,168.584 348.124,167.917 347.5,167.5C 348.11,166.609 348.443,165.609 348.5,164.5C 352.878,156.154 359.212,154.321 367.5,159C 370.36,162.681 371.193,166.848 370,171.5C 366.263,188.834 365.429,206.334 367.5,224C 367.244,255.551 353.577,279.218 326.5,295C 318.138,299.196 309.471,302.196 300.5,304C 308.367,296.633 316.033,289.133 323.5,281.5 Z"/></g>
<g><path style="opacity:1" fill="#5e8942" d="M 348.5,164.5 C 348.443,165.609 348.11,166.609 347.5,167.5C 345.167,169.5 342.833,171.5 340.5,173.5C 342.43,169.9 345.097,166.9 348.5,164.5 Z"/></g>
<g><path style="opacity:1" fill="#d2d957" d="M 220.5,190.5 C 220.772,193.963 220.105,197.463 218.5,201C 218.833,201.333 219.167,201.667 219.5,202C 218.198,204.213 217.198,206.546 216.5,209C 217.833,209.333 219.167,209.667 220.5,210C 216.975,210.179 213.641,210.679 210.5,211.5C 202.308,212.344 194.308,214.011 186.5,216.5C 186.442,209.202 187.775,202.035 190.5,195C 189.906,194.536 189.239,194.369 188.5,194.5C 192.167,192.655 196.167,191.488 200.5,191C 207.158,190.5 213.825,190.334 220.5,190.5 Z"/></g>
<g><path style="opacity:1" fill="#669043" d="M 326.5,188.5 C 325.92,190.749 324.587,192.415 322.5,193.5C 323.08,191.251 324.413,189.585 326.5,188.5 Z"/></g>
<g><path style="opacity:1" fill="#a3d757" d="M 347.5,167.5 C 348.124,167.917 348.457,168.584 348.5,169.5C 344.75,185.527 341.084,201.86 337.5,218.5C 336.038,217.542 334.705,216.376 333.5,215C 332.833,214.333 332.167,214.333 331.5,215C 316.634,231.363 301.634,247.53 286.5,263.5C 286.082,262.778 285.416,262.278 284.5,262C 286.112,256.532 287.779,251.032 289.5,245.5C 289.291,244.914 288.957,244.414 288.5,244C 290.058,240.612 291.392,237.112 292.5,233.5C 292.122,230.711 293.122,228.211 295.5,226C 293.942,225.79 292.609,225.29 291.5,224.5C 294.767,222.573 297.767,220.239 300.5,217.5C 303.903,215.1 306.57,212.1 308.5,208.5C 312.461,202.871 317.127,197.871 322.5,193.5C 324.587,192.415 325.92,190.749 326.5,188.5C 330.48,182.887 335.146,177.887 340.5,173.5C 342.833,171.5 345.167,169.5 347.5,167.5 Z"/></g>
<g><path style="opacity:1" fill="#c3d857" d="M 220.5,190.5 C 231.999,190.794 242.999,193.127 253.5,197.5C 251.566,203.149 249.9,208.982 248.5,215C 248.316,216.376 247.649,217.209 246.5,217.5C 234.957,212.993 222.957,210.993 210.5,211.5C 213.641,210.679 216.975,210.179 220.5,210C 219.167,209.667 217.833,209.333 216.5,209C 217.198,206.546 218.198,204.213 219.5,202C 219.167,201.667 218.833,201.333 218.5,201C 220.105,197.463 220.772,193.963 220.5,190.5 Z"/></g>
<g><path style="opacity:1" fill="#6e773d" d="M 171.5,200.5 C 171.027,201.906 170.027,202.573 168.5,202.5C 168.973,201.094 169.973,200.427 171.5,200.5 Z"/></g>
<g><path style="opacity:1" fill="#dfd958" d="M 188.5,194.5 C 189.239,194.369 189.906,194.536 190.5,195C 187.775,202.035 186.442,209.202 186.5,216.5C 158.189,230.002 143.189,252.502 141.5,284C 141.181,295.301 143.181,306.134 147.5,316.5C 145.821,318 144.488,319.833 143.5,322C 143.833,322.333 144.167,322.667 144.5,323C 142.231,329.902 140.565,336.735 139.5,343.5C 137.113,341.087 134.946,338.42 133,335.5C 131.527,331.221 129.527,327.221 127,323.5C 126.51,322.207 126.343,320.873 126.5,319.5C 135.351,285.764 143.684,252.098 151.5,218.5C 151.333,217.833 151.167,217.167 151,216.5C 150.329,217.252 149.496,217.586 148.5,217.5C 154.443,211.529 161.109,206.529 168.5,202.5C 170.027,202.573 171.027,201.906 171.5,200.5C 176.758,197.433 182.424,195.433 188.5,194.5 Z"/></g>
<g><path style="opacity:1" fill="#b2d757" d="M 253.5,197.5 C 267.775,204.089 280.442,213.089 291.5,224.5C 292.609,225.29 293.942,225.79 295.5,226C 293.122,228.211 292.122,230.711 292.5,233.5C 291.392,237.112 290.058,240.612 288.5,244C 288.957,244.414 289.291,244.914 289.5,245.5C 287.779,251.032 286.112,256.532 284.5,262C 285.416,262.278 286.082,262.778 286.5,263.5C 273.251,278.958 259.751,294.291 246,309.5C 244.729,310.883 243.229,311.883 241.5,312.5C 241.077,311.735 240.743,310.902 240.5,310C 242.55,301.477 244.884,292.81 247.5,284C 247.167,283.667 246.833,283.333 246.5,283C 247.833,279.333 249.167,275.667 250.5,272C 250.167,271.667 249.833,271.333 249.5,271C 250.737,270.768 251.737,270.268 252.5,269.5C 255.167,268.833 256.833,267.167 257.5,264.5C 258.5,262.833 259.833,261.5 261.5,260.5C 264.243,258.761 266.243,256.427 267.5,253.5C 268.5,251.833 269.833,250.5 271.5,249.5C 274.243,247.761 276.243,245.427 277.5,242.5C 277.631,241.761 277.464,241.094 277,240.5C 271.532,236.033 266.365,231.2 261.5,226C 256.567,222.873 251.567,220.04 246.5,217.5C 247.649,217.209 248.316,216.376 248.5,215C 249.9,208.982 251.566,203.149 253.5,197.5 Z"/></g>
<g><path style="opacity:1" fill="#628841" d="M 308.5,208.5 C 306.57,212.1 303.903,215.1 300.5,217.5C 302.43,213.9 305.097,210.9 308.5,208.5 Z"/></g>
<g><path style="opacity:1" fill="#e5d958" d="M 126.5,319.5 C 114.535,286.753 118.701,256.086 139,227.5C 142.399,224.271 145.565,220.938 148.5,217.5C 149.496,217.586 150.329,217.252 151,216.5C 151.167,217.167 151.333,217.833 151.5,218.5C 143.684,252.098 135.351,285.764 126.5,319.5 Z"/></g>
<g><path style="opacity:1" fill="#6d8e43" d="M 277.5,242.5 C 276.243,245.427 274.243,247.761 271.5,249.5C 272.757,246.573 274.757,244.239 277.5,242.5 Z"/></g>
<g><path style="opacity:1" fill="#cbda57" d="M 224.5,250.5 C 219.792,272.723 214.459,294.389 208.5,315.5C 208.473,317.527 208.473,319.527 208.5,321.5C 207.5,321.5 206.5,321.5 205.5,321.5C 192.07,317.235 183.57,308.235 180,294.5C 177.159,272.682 185.992,257.848 206.5,250C 212.582,249.212 218.582,249.379 224.5,250.5 Z"/></g>
<g><path style="opacity:1" fill="#c1db57" d="M 224.5,250.5 C 228.313,251.16 231.979,252.326 235.5,254C 240.669,258.337 245.669,262.837 250.5,267.5C 250.833,268.5 251.5,269.167 252.5,269.5C 251.737,270.268 250.737,270.768 249.5,271C 249.833,271.333 250.167,271.667 250.5,272C 249.167,275.667 247.833,279.333 246.5,283C 246.833,283.333 247.167,283.667 247.5,284C 244.884,292.81 242.55,301.477 240.5,310C 240.743,310.902 241.077,311.735 241.5,312.5C 236.272,318.494 229.605,321.827 221.5,322.5C 217.069,322.769 212.735,322.436 208.5,321.5C 208.473,319.527 208.473,317.527 208.5,315.5C 214.459,294.389 219.792,272.723 224.5,250.5 Z"/></g>
<g><path style="opacity:1" fill="#6f8e43" d="M 267.5,253.5 C 266.243,256.427 264.243,258.761 261.5,260.5C 262.757,257.573 264.757,255.239 267.5,253.5 Z"/></g>
<g><path style="opacity:1" fill="#698641" d="M 257.5,264.5 C 256.833,267.167 255.167,268.833 252.5,269.5C 251.5,269.167 250.833,268.5 250.5,267.5C 251.496,267.414 252.329,267.748 253,268.5C 254.371,266.959 255.871,265.625 257.5,264.5 Z"/></g>
<g><path style="opacity:1" fill="#588540" d="M 328.5,275.5 C 327.581,278.089 325.914,280.089 323.5,281.5C 324.419,278.911 326.086,276.911 328.5,275.5 Z"/></g>
<g><path style="opacity:1" fill="#7b9344" d="M 205.5,321.5 C 206.5,321.5 207.5,321.5 208.5,321.5C 212.735,322.436 217.069,322.769 221.5,322.5C 219.527,323.163 217.361,323.496 215,323.5C 211.523,323.672 208.356,323.006 205.5,321.5 Z"/></g>
<g><path style="opacity:1" fill="#a6d757" d="M 259.5,372.5 C 259.376,369.686 259.376,366.853 259.5,364C 262.036,358.081 263.869,351.914 265,345.5C 267.665,344.526 267.831,343.859 265.5,343.5C 275.755,332.238 286.088,320.905 296.5,309.5C 301.717,314.219 306.717,319.052 311.5,324C 300.548,336.622 289.214,348.955 277.5,361C 271.881,365.478 265.881,369.311 259.5,372.5 Z"/></g>
<g><path style="opacity:1" fill="#d6d957" d="M 147.5,316.5 C 152.727,326.583 159.393,335.75 167.5,344C 168.094,344.464 168.761,344.631 169.5,344.5C 168.153,349.46 166.487,354.627 164.5,360C 164.957,360.414 165.291,360.914 165.5,361.5C 165.185,363.483 164.185,364.816 162.5,365.5C 160.745,364.928 159.078,364.094 157.5,363C 154.133,359.297 150.466,355.964 146.5,353C 143.924,349.937 141.591,346.771 139.5,343.5C 140.565,336.735 142.231,329.902 144.5,323C 144.167,322.667 143.833,322.333 143.5,322C 144.488,319.833 145.821,318 147.5,316.5 Z"/></g>
<g><path style="opacity:1" fill="#b0d656" d="M 265.5,343.5 C 267.831,343.859 267.665,344.526 265,345.5C 263.869,351.914 262.036,358.081 259.5,364C 259.376,366.853 259.376,369.686 259.5,372.5C 246.605,378.807 232.938,382.14 218.5,382.5C 220.292,381.691 222.292,381.191 224.5,381C 224.167,380 223.833,379 223.5,378C 225.015,372.495 226.682,367.328 228.5,362.5C 226.257,361.526 223.924,361.192 221.5,361.5C 237.754,359.434 252.421,353.434 265.5,343.5 Z"/></g>
<g><path style="opacity:1" fill="#c9d857" d="M 169.5,344.5 C 177.943,351.303 187.276,356.303 197.5,359.5C 196.5,366.167 195.5,372.833 194.5,379.5C 195.791,379.263 196.791,379.596 197.5,380.5C 184.412,378.447 172.745,373.447 162.5,365.5C 164.185,364.816 165.185,363.483 165.5,361.5C 165.291,360.914 164.957,360.414 164.5,360C 166.487,354.627 168.153,349.46 169.5,344.5 Z"/></g>
<g><path style="opacity:1" fill="#beda57" d="M 197.5,359.5 C 205.428,360.93 213.428,361.597 221.5,361.5C 223.924,361.192 226.257,361.526 228.5,362.5C 226.682,367.328 225.015,372.495 223.5,378C 223.833,379 224.167,380 224.5,381C 222.292,381.191 220.292,381.691 218.5,382.5C 211.368,382.892 204.368,382.225 197.5,380.5C 196.791,379.596 195.791,379.263 194.5,379.5C 195.5,372.833 196.5,366.167 197.5,359.5 Z"/></g>
</svg>
