<svg xmlns="http://www.w3.org/2000/svg" xmlns:xlink="http://www.w3.org/1999/xlink" width="500" zoomAndPan="magnify" viewBox="0 0 375 374.999991" height="500" preserveAspectRatio="xMidYMid meet" version="1.0"><defs><g/><clipPath id="e4705fc898"><path d="M 144.40625 93.703125 L 238.90625 93.703125 L 238.90625 206.902344 L 144.40625 206.902344 Z M 144.40625 93.703125 " clip-rule="nonzero"/></clipPath></defs><g clip-path="url(#e4705fc898)"><path fill="#1c201f" d="M 144.40625 108.484375 L 144.40625 93.679688 L 157.140625 101.332031 L 157.140625 116.089844 Z M 168.175781 150.300781 L 168.175781 107.917969 L 238.90625 150.300781 L 210.183594 167.484375 L 210.183594 152.722656 L 214.222656 150.300781 L 204.664062 144.59375 L 204.664062 170.765625 L 186.410156 181.722656 L 186.410156 166.917969 L 191.925781 163.613281 L 191.925781 136.917969 L 180.914062 130.332031 L 180.914062 185.003906 L 144.40625 206.875 L 144.40625 116.023438 L 157.140625 123.628906 L 157.140625 184.460938 L 168.15625 177.875 L 168.15625 150.300781 Z M 168.175781 150.300781 " fill-opacity="1" fill-rule="nonzero"/></g><g fill="#000000" fill-opacity="1"><g transform="translate(56.374929, 250.310974)"><g><path d="M 14.589844 -14.515625 C 13.070312 -15.121094 7.484375 -15.957031 7.484375 -18.277344 C 7.484375 -19.984375 9.574219 -20.480469 10.828125 -20.480469 C 11.96875 -20.480469 13.335938 -20.136719 14.058594 -19.453125 C 14.515625 -18.996094 14.703125 -18.695312 14.855469 -18.3125 C 15.046875 -17.820312 15.160156 -17.289062 15.882812 -17.289062 L 19.605469 -17.289062 C 20.480469 -17.289062 20.707031 -17.441406 20.707031 -18.351562 C 20.707031 -23.367188 15.425781 -25.570312 10.601562 -25.570312 C 5.851562 -25.378906 1.367188 -22.949219 1.367188 -18.007812 C 1.367188 -13.183594 4.902344 -11.664062 8.738281 -10.449219 C 11.96875 -9.421875 15.351562 -9.382812 15.351562 -7.257812 C 15.351562 -5.128906 13.679688 -4.671875 11.625 -4.671875 C 10.21875 -4.671875 8.664062 -5.015625 7.902344 -5.925781 C 7.410156 -6.496094 7.21875 -6.992188 7.179688 -7.484375 C 7.105469 -8.433594 6.6875 -8.550781 5.8125 -8.550781 L 2.128906 -8.550781 C 1.253906 -8.550781 1.027344 -8.359375 1.027344 -7.484375 C 1.027344 -2.164062 6.496094 0.570312 11.246094 0.570312 C 17.097656 0.570312 21.351562 -2.015625 21.351562 -7.410156 C 21.351562 -12.578125 17.324219 -13.679688 14.589844 -14.515625 Z M 14.589844 -14.515625 "/></g></g></g><g fill="#000000" fill-opacity="1"><g transform="translate(79.360237, 250.310974)"><g><path d="M 19.71875 -25 L 2.089844 -25 C 1.214844 -25 0.988281 -24.582031 0.988281 -23.898438 L 0.988281 -20.746094 C 0.988281 -20.0625 1.214844 -19.644531 2.089844 -19.644531 L 7.941406 -19.644531 L 7.941406 -1.101562 C 7.941406 -0.226562 8.359375 0 9.042969 0 L 12.804688 0 C 13.488281 0 13.90625 -0.226562 13.90625 -1.101562 L 13.90625 -19.644531 L 19.71875 -19.644531 C 20.59375 -19.644531 20.820312 -20.0625 20.820312 -20.746094 L 20.820312 -23.898438 C 20.820312 -24.582031 20.59375 -25 19.71875 -25 Z M 19.71875 -25 "/></g></g></g><g fill="#000000" fill-opacity="1"><g transform="translate(101.167777, 250.310974)"><g><path d="M 23.289062 -1.214844 L 17.933594 -9.003906 C 20.289062 -9.800781 23.214844 -12.578125 23.214844 -16.566406 C 23.214844 -18.996094 22.417969 -21.164062 21.011719 -22.53125 C 19.414062 -24.125 17.589844 -24.960938 13.449219 -24.960938 L 3.875 -24.960938 C 3 -24.960938 2.8125 -24.542969 2.8125 -23.859375 L 2.8125 -1.101562 C 2.8125 -0.226562 3.191406 0 3.875 0 L 7.636719 0 C 8.320312 0 8.738281 -0.226562 8.738281 -1.101562 L 8.738281 -19.644531 L 13.792969 -19.644531 C 15.769531 -19.644531 17.289062 -18.390625 17.289062 -16.414062 C 17.289062 -14.628906 15.539062 -13.335938 13.679688 -13.335938 L 12.917969 -13.335938 C 12.042969 -13.335938 11.816406 -12.917969 11.816406 -12.234375 L 11.816406 -9.195312 C 11.816406 -8.132812 11.890625 -7.714844 12.234375 -7.257812 L 16.335938 -1.140625 C 16.871094 -0.34375 17.324219 0 18.238281 0 L 22.722656 0 C 23.441406 0 23.632812 -0.683594 23.289062 -1.214844 Z M 23.289062 -1.214844 "/></g></g></g><g fill="#000000" fill-opacity="1"><g transform="translate(126.470604, 250.310974)"><g><path d="M 20.933594 -5.320312 L 8.816406 -5.320312 L 8.816406 -10.335938 L 18.996094 -10.335938 C 19.871094 -10.335938 20.097656 -10.753906 20.097656 -11.4375 L 20.097656 -14.398438 C 20.097656 -15.085938 19.871094 -15.503906 18.996094 -15.503906 L 8.816406 -15.503906 L 8.816406 -19.644531 L 20.289062 -19.644531 C 21.164062 -19.644531 21.390625 -20.0625 21.390625 -20.746094 L 21.390625 -23.898438 C 21.390625 -24.582031 21.164062 -25 20.289062 -25 L 3.914062 -25 C 3.039062 -25 2.8125 -24.582031 2.8125 -23.898438 L 2.8125 -1.101562 C 2.8125 -0.417969 3.039062 0 3.914062 0 L 20.933594 0 C 21.808594 0 22.035156 -0.417969 22.035156 -1.101562 L 22.035156 -4.21875 C 22.035156 -4.902344 21.808594 -5.320312 20.933594 -5.320312 Z M 20.933594 -5.320312 "/></g></g></g><g fill="#000000" fill-opacity="1"><g transform="translate(150.291732, 250.310974)"><g><path d="M 24.316406 -1.0625 L 15.917969 -23.824219 C 15.578125 -24.621094 15.199219 -25 14.363281 -25 L 10.714844 -25 C 9.878906 -25 9.460938 -24.621094 9.15625 -23.824219 L 0.722656 -1.0625 C 0.53125 -0.609375 0.53125 0 1.367188 0 L 5.355469 0 C 6.191406 0 6.496094 -0.226562 6.800781 -1.140625 L 7.863281 -4.140625 L 17.171875 -4.140625 L 18.238281 -1.140625 C 18.542969 -0.226562 18.84375 0 19.679688 0 L 23.671875 0 C 24.507812 0 24.507812 -0.609375 24.316406 -1.0625 Z M 12.539062 -17.859375 L 15.386719 -9.460938 L 9.6875 -9.460938 Z M 12.539062 -17.859375 "/></g></g></g><g fill="#000000" fill-opacity="1"><g transform="translate(175.176644, 250.310974)"><g><path d="M 25.230469 -25.039062 L 21.582031 -25.039062 C 20.328125 -25.039062 20.136719 -24.203125 19.871094 -23.746094 L 14.628906 -14.398438 L 9.421875 -23.746094 C 9.117188 -24.203125 8.96875 -25.039062 7.675781 -25.039062 L 3.914062 -25.039062 C 3.039062 -25.039062 2.8125 -24.621094 2.8125 -23.9375 L 2.8125 -1.101562 C 2.8125 -0.226562 3.230469 0 3.914062 0 L 7.675781 0 C 8.359375 0 8.777344 -0.226562 8.777344 -1.101562 L 8.777344 -13.980469 L 12.613281 -7.332031 C 12.804688 -7.027344 13.109375 -6.535156 13.679688 -6.535156 L 15.578125 -6.535156 C 16.148438 -6.535156 16.488281 -7.027344 16.679688 -7.332031 L 20.480469 -13.980469 L 20.480469 -1.101562 C 20.480469 -0.226562 20.898438 0 21.582031 0 L 25.230469 0 C 25.914062 0 26.332031 -0.226562 26.332031 -1.101562 L 26.332031 -23.9375 C 26.332031 -24.621094 26.101562 -25.039062 25.230469 -25.039062 Z M 25.230469 -25.039062 "/></g></g></g><g fill="#000000" fill-opacity="1"><g transform="translate(204.316688, 250.310974)"><g><path d="M 14.589844 -14.515625 C 13.070312 -15.121094 7.484375 -15.957031 7.484375 -18.277344 C 7.484375 -19.984375 9.574219 -20.480469 10.828125 -20.480469 C 11.96875 -20.480469 13.335938 -20.136719 14.058594 -19.453125 C 14.515625 -18.996094 14.703125 -18.695312 14.855469 -18.3125 C 15.046875 -17.820312 15.160156 -17.289062 15.882812 -17.289062 L 19.605469 -17.289062 C 20.480469 -17.289062 20.707031 -17.441406 20.707031 -18.351562 C 20.707031 -23.367188 15.425781 -25.570312 10.601562 -25.570312 C 5.851562 -25.378906 1.367188 -22.949219 1.367188 -18.007812 C 1.367188 -13.183594 4.902344 -11.664062 8.738281 -10.449219 C 11.96875 -9.421875 15.351562 -9.382812 15.351562 -7.257812 C 15.351562 -5.128906 13.679688 -4.671875 11.625 -4.671875 C 10.21875 -4.671875 8.664062 -5.015625 7.902344 -5.925781 C 7.410156 -6.496094 7.21875 -6.992188 7.179688 -7.484375 C 7.105469 -8.433594 6.6875 -8.550781 5.8125 -8.550781 L 2.128906 -8.550781 C 1.253906 -8.550781 1.027344 -8.359375 1.027344 -7.484375 C 1.027344 -2.164062 6.496094 0.570312 11.246094 0.570312 C 17.097656 0.570312 21.351562 -2.015625 21.351562 -7.410156 C 21.351562 -12.578125 17.324219 -13.679688 14.589844 -14.515625 Z M 14.589844 -14.515625 "/></g></g></g><g fill="#000000" fill-opacity="1"><g transform="translate(227.301996, 250.310974)"><g><path d="M 22.453125 -8.015625 L 22.453125 -16.984375 C 22.453125 -22.988281 16.753906 -25.570312 12.234375 -25.570312 C 7.714844 -25.570312 2.089844 -22.988281 2.089844 -16.984375 L 2.089844 -8.015625 C 2.089844 -2.015625 7.714844 0.570312 12.234375 0.570312 C 16.753906 0.570312 22.453125 -2.015625 22.453125 -8.015625 Z M 16.488281 -16.453125 L 16.488281 -8.550781 C 16.488281 -6.117188 14.742188 -4.710938 12.234375 -4.710938 C 9.765625 -4.710938 8.015625 -6.117188 8.015625 -8.550781 L 8.015625 -16.453125 C 8.015625 -18.882812 9.765625 -20.289062 12.234375 -20.289062 C 14.742188 -20.289062 16.488281 -18.882812 16.488281 -16.453125 Z M 16.488281 -16.453125 "/></g></g></g><g fill="#000000" fill-opacity="1"><g transform="translate(251.806999, 250.310974)"><g><path d="M 22 -25 L 18.351562 -25 C 17.667969 -25 17.25 -24.773438 17.25 -23.898438 L 17.25 -10.714844 L 9.195312 -23.707031 C 8.699219 -24.46875 8.433594 -25 7.484375 -25 L 3.914062 -25 C 3.039062 -25 2.8125 -24.582031 2.8125 -23.898438 L 2.8125 -1.101562 C 2.8125 -0.226562 3.230469 0 3.914062 0 L 7.675781 0 C 8.359375 0 8.777344 -0.226562 8.777344 -1.101562 L 8.777344 -14.324219 L 16.832031 -1.292969 C 17.324219 -0.53125 17.589844 0 18.542969 0 L 22 0 C 22.871094 0 23.101562 -0.417969 23.101562 -1.101562 L 23.101562 -23.898438 C 23.101562 -24.773438 22.683594 -25 22 -25 Z M 22 -25 "/></g></g></g><g fill="#000000" fill-opacity="1"><g transform="translate(277.717703, 250.310974)"><g><path d="M 13.679688 -5.207031 L 11.285156 -5.207031 L 11.285156 -19.71875 L 13.5625 -19.71875 C 14.4375 -19.71875 14.667969 -20.136719 14.667969 -20.820312 L 14.667969 -23.898438 C 14.667969 -24.582031 14.4375 -25 13.5625 -25 L 3 -25 C 2.128906 -25 1.898438 -24.582031 1.898438 -23.898438 L 1.898438 -20.820312 C 1.898438 -20.136719 2.128906 -19.71875 3 -19.71875 L 5.320312 -19.71875 L 5.320312 -5.207031 L 2.925781 -5.207031 C 2.050781 -5.207031 1.824219 -4.789062 1.824219 -4.101562 L 1.824219 -1.101562 C 1.824219 -0.417969 2.050781 0 2.925781 0 L 13.679688 0 C 14.550781 0 14.78125 -0.417969 14.78125 -1.101562 L 14.78125 -4.101562 C 14.78125 -4.789062 14.550781 -5.207031 13.679688 -5.207031 Z M 13.679688 -5.207031 "/></g></g></g><g fill="#000000" fill-opacity="1"><g transform="translate(294.586247, 250.310974)"><g><path d="M 22.074219 -7.410156 C 22.074219 -8.320312 21.769531 -8.699219 20.933594 -8.699219 L 17.210938 -8.699219 C 16.375 -8.699219 16.300781 -8.09375 16.1875 -7.332031 C 15.882812 -5.507812 14.25 -4.75 12.195312 -4.75 C 9.6875 -4.75 7.980469 -6.117188 7.980469 -8.550781 L 7.980469 -16.453125 C 7.980469 -18.84375 9.6875 -20.25 12.195312 -20.25 C 14.25 -20.25 15.3125 -19.679688 16.109375 -18.425781 C 16.414062 -17.972656 16.453125 -17.25 17.25 -17.25 L 20.898438 -17.25 C 21.769531 -17.25 22.074219 -17.441406 22.074219 -18.351562 C 21.582031 -23.175781 16.90625 -25.570312 12.195312 -25.570312 C 7.675781 -25.570312 2.015625 -22.949219 2.015625 -16.984375 L 2.015625 -8.015625 C 2.015625 -2.050781 7.675781 0.570312 12.195312 0.570312 C 16.90625 0.570312 22.074219 -2.507812 22.074219 -7.410156 Z M 22.074219 -7.410156 "/></g></g></g></svg>