<?xml version="1.0" encoding="UTF-8"?>
<!DOCTYPE svg PUBLIC "-//W3C//DTD SVG 1.1//EN" "http://www.w3.org/Graphics/SVG/1.1/DTD/svg11.dtd">
<svg xmlns="http://www.w3.org/2000/svg" version="1.1" width="375px" height="121px" style="shape-rendering:geometricPrecision; text-rendering:geometricPrecision; image-rendering:optimizeQuality; fill-rule:evenodd; clip-rule:evenodd" xmlns:xlink="http://www.w3.org/1999/xlink">
<g><path style="opacity:1" fill="#001822" d="M -0.5,-0.5 C 124.5,-0.5 249.5,-0.5 374.5,-0.5C 374.5,39.8333 374.5,80.1667 374.5,120.5C 249.5,120.5 124.5,120.5 -0.5,120.5C -0.5,80.1667 -0.5,39.8333 -0.5,-0.5 Z"/></g>
<g><path style="opacity:1" fill="#95d155" d="M 97.5,45.5 C 97.2252,43.1582 96.3919,43.1582 95,45.5C 95.7542,41.5657 96.5875,37.5657 97.5,33.5C 105.478,24.5198 113.478,15.5198 121.5,6.5C 125.809,4.48642 128.143,5.81975 128.5,10.5C 127.762,21.1516 127.262,31.8182 127,42.5C 122.072,55.2992 113.239,62.9659 100.5,65.5C 102.854,62.312 105.688,59.6453 109,57.5C 111.697,53.4792 114.364,49.4792 117,45.5C 119.931,39.1187 118.764,33.7854 113.5,29.5C 108.506,35.1606 103.173,40.4939 97.5,45.5 Z"/></g>
<g><path style="opacity:1" fill="#ccd456" d="M 81.5,22.5 C 80.4181,24.3386 79.5847,26.3386 79,28.5C 78.3292,29.2524 77.4959,29.5858 76.5,29.5C 65.8916,27.1356 55.8916,28.469 46.5,33.5C 45.7036,29.3162 47.037,26.1496 50.5,24C 49.9056,23.5357 49.2389,23.369 48.5,23.5C 53.2454,20.3134 58.5787,18.9801 64.5,19.5C 70.3807,19.3881 76.0473,20.3881 81.5,22.5 Z"/></g>
<g><path style="opacity:1" fill="#afd456" d="M 81.5,22.5 C 83.6968,23.8446 86.0302,25.0112 88.5,26C 91.1009,29.1117 94.1009,31.6117 97.5,33.5C 96.5875,37.5657 95.7542,41.5657 95,45.5C 96.3919,43.1582 97.2252,43.1582 97.5,45.5C 91.1742,53.1584 84.5075,60.4917 77.5,67.5C 77.179,66.1825 76.8457,64.8492 76.5,63.5C 77.5248,59.4683 78.5248,55.4683 79.5,51.5C 83.4038,48.263 87.0704,44.5963 90.5,40.5C 86.3661,36.0187 81.6995,32.352 76.5,29.5C 77.4959,29.5858 78.3292,29.2524 79,28.5C 79.5847,26.3386 80.4181,24.3386 81.5,22.5 Z"/></g>
<g><path style="opacity:1" fill="#ddd657" d="M 48.5,23.5 C 49.2389,23.369 49.9056,23.5357 50.5,24C 47.037,26.1496 45.7036,29.3162 46.5,33.5C 30.8679,49.5165 30.5346,65.8498 45.5,82.5C 45.4142,83.4959 45.7476,84.3292 46.5,85C 45.283,86.6477 44.4497,88.481 44,90.5C 43.1841,89.1772 42.0174,88.5106 40.5,88.5C 28.2078,78.3877 23.7078,65.3877 27,49.5C 29.9648,37.3677 37.1314,28.7011 48.5,23.5 Z"/></g>
<g><path style="opacity:1" fill="#c2d957" d="M 79.5,51.5 C 78.5248,55.4683 77.5248,59.4683 76.5,63.5C 76.8457,64.8492 77.179,66.1825 77.5,67.5C 71.0463,74.2417 63.7129,75.2417 55.5,70.5C 48.8691,62.6734 48.8691,54.8401 55.5,47C 64.8517,41.3533 72.8517,42.8533 79.5,51.5 Z"/></g>
<g><path style="opacity:1" fill="#63b04c" d="M 143.5,67.5 C 147.555,67.1758 151.555,67.5091 155.5,68.5C 153.363,69.0798 151.53,70.0798 150,71.5C 149.281,77.5935 148.115,83.5935 146.5,89.5C 146.026,83.1281 146.693,76.7947 148.5,70.5C 146.345,69.9986 144.678,68.9986 143.5,67.5 Z"/></g>
<g><path style="opacity:1" fill="#6bbc4f" d="M 213.5,67.5 C 215.164,68.9488 215.998,70.9488 216,73.5C 216.667,78.8333 216.667,84.1667 216,89.5C 214.851,86.6074 214.351,83.6074 214.5,80.5C 212.833,80.5 211.167,80.5 209.5,80.5C 209.076,83.354 208.076,86.0207 206.5,88.5C 205.833,89.8333 205.167,89.8333 204.5,88.5C 207.788,81.5946 210.788,74.5946 213.5,67.5 Z"/></g>
<g><path style="opacity:1" fill="#0f2b28" d="M 213.5,71.5 C 214.468,73.6074 214.802,75.9407 214.5,78.5C 213.325,78.719 212.325,78.3857 211.5,77.5C 212.372,75.5504 213.039,73.5504 213.5,71.5 Z"/></g>
<g><path style="opacity:1" fill="#67b74e" d="M 301.5,67.5 C 302.75,67.5774 303.583,68.244 304,69.5C 305.667,74.5 307.333,79.5 309,84.5C 309.762,78.7228 310.928,73.0561 312.5,67.5C 312.833,68.3333 313.167,69.1667 313.5,70C 312.45,76.588 311.116,83.088 309.5,89.5C 306.845,84.0384 304.679,78.3717 303,72.5C 301.619,78.1192 300.452,83.7859 299.5,89.5C 298.842,82.0917 299.509,74.7584 301.5,67.5 Z"/></g>
<g><path style="opacity:1" fill="#a3d255" d="M 76.5,96.5 C 75.3284,94.1561 75.3284,91.8228 76.5,89.5C 76.0431,88.7025 75.3764,88.3691 74.5,88.5C 77.7174,86.5826 81.0508,84.7493 84.5,83C 88.466,78.0325 92.7993,73.3658 97.5,69C 100.357,69.4423 102.69,70.9423 104.5,73.5C 97.5283,84.1473 88.1949,91.8139 76.5,96.5 Z"/></g>
<g><path style="opacity:1" fill="#66b44d" d="M 324.5,67.5 C 325.693,67.9704 326.36,68.9704 326.5,70.5C 325.351,76.8853 324.017,83.2186 322.5,89.5C 322.167,88.8333 321.833,88.1667 321.5,87.5C 322.718,80.8588 323.718,74.1921 324.5,67.5 Z"/></g>
<g><path style="opacity:1" fill="#68b84e" d="M 165.5,67.5 C 170.465,66.9748 174.131,68.8082 176.5,73C 176.097,74.4728 175.43,75.8061 174.5,77C 171.945,78.4445 169.279,79.6112 166.5,80.5C 168.483,82.9837 170.65,85.3171 173,87.5C 173.688,88.3317 173.521,88.9984 172.5,89.5C 170.211,86.7088 167.711,84.0421 165,81.5C 164.587,84.2321 163.92,86.8987 163,89.5C 162.638,82.0123 163.471,74.679 165.5,67.5 Z"/></g>
<g><path style="opacity:1" fill="#051e24" d="M 166.5,69.5 C 168.989,69.2978 171.323,69.7978 173.5,71C 174.517,72.0495 174.684,73.2161 174,74.5C 166.659,79.5883 164.159,77.9217 166.5,69.5 Z"/></g>
<g><path style="opacity:1" fill="#6dc050" d="M 196.5,79.5 C 192.671,78.931 189.337,79.5977 186.5,81.5C 186.5,82.8333 186.5,84.1667 186.5,85.5C 185.596,86.209 185.263,87.209 185.5,88.5C 188.833,88.5 192.167,88.5 195.5,88.5C 192.038,89.4816 188.371,89.815 184.5,89.5C 184.63,82.4213 185.464,75.4213 187,68.5C 191.118,67.2023 195.285,67.2023 199.5,68.5C 195.893,69.4892 192.226,69.8226 188.5,69.5C 188.296,72.5176 187.963,75.5176 187.5,78.5C 190.713,78.19 193.713,78.5233 196.5,79.5 Z"/></g>
<g><path style="opacity:1" fill="#3d753c" d="M 196.5,79.5 C 193.275,80.2368 189.941,80.9035 186.5,81.5C 189.337,79.5977 192.671,78.931 196.5,79.5 Z"/></g>
<g><path style="opacity:1" fill="#64b04c" d="M 230.5,67.5 C 231.586,67.62 232.253,68.2867 232.5,69.5C 233.983,74.7658 235.15,80.0991 236,85.5C 239.255,79.9916 242.255,74.325 245,68.5C 246.156,67.0072 246.99,67.1739 247.5,69C 246.435,75.8878 245.102,82.7212 243.5,89.5C 243.167,88.3333 242.833,87.1667 242.5,86C 243.276,82.1394 243.776,78.3061 244,74.5C 241.588,79.6587 238.921,84.6587 236,89.5C 234.29,85.2631 232.79,80.9297 231.5,76.5C 230.481,80.9936 229.148,85.3269 227.5,89.5C 227.614,82.1334 228.614,74.8001 230.5,67.5 Z"/></g>
<g><path style="opacity:1" fill="#69b94e" d="M 282.5,67.5 C 287.818,66.5373 290.151,68.7039 289.5,74C 289.344,78.4573 288.178,82.6239 286,86.5C 280.281,91.1736 277.114,89.6736 276.5,82C 277.052,76.4953 279.052,71.6619 282.5,67.5 Z"/></g>
<g><path style="opacity:1" fill="#051d23" d="M 284.5,68.5 C 287.05,68.8844 288.383,70.3844 288.5,73C 287.874,77.0039 286.708,80.8372 285,84.5C 283.194,87.6841 281.194,88.0175 279,85.5C 278.224,78.9204 280.057,73.2537 284.5,68.5 Z"/></g>
<g><path style="opacity:1" fill="#66b44d" d="M 342.5,66.5 C 346.029,65.8894 347.862,67.2227 348,70.5C 346.534,68.6751 344.701,68.1751 342.5,69C 337.798,73.9218 336.298,79.7552 338,86.5C 341.092,88.1824 343.259,87.3491 344.5,84C 345.332,83.3123 345.998,83.479 346.5,84.5C 344.674,88.5182 341.674,90.0182 337.5,89C 333.671,80.1815 335.337,72.6815 342.5,66.5 Z"/></g>
<g><path style="opacity:1" fill="#65b34c" d="M 125.5,67.5 C 128.893,67.0617 131.893,67.8951 134.5,70C 131.616,69.487 128.782,69.6537 126,70.5C 125.333,71.8333 125.333,73.1667 126,74.5C 128.793,77.4532 130.96,80.7865 132.5,84.5C 129.168,90.8246 125.168,91.1579 120.5,85.5C 120.833,85.1667 121.167,84.8333 121.5,84.5C 122.929,85.935 124.595,86.935 126.5,87.5C 128.587,87.4607 129.921,86.4607 130.5,84.5C 129.327,80.834 127.16,77.834 124,75.5C 123.109,72.5024 123.609,69.8357 125.5,67.5 Z"/></g>
<g><path style="opacity:1" fill="#65b34c" d="M 259.5,67.5 C 262.893,67.0617 265.893,67.8951 268.5,70C 265.616,69.487 262.782,69.6537 260,70.5C 259.333,71.8333 259.333,73.1667 260,74.5C 262.793,77.4532 264.96,80.7865 266.5,84.5C 263.168,90.8246 259.168,91.1579 254.5,85.5C 254.833,85.1667 255.167,84.8333 255.5,84.5C 256.929,85.935 258.595,86.935 260.5,87.5C 262.587,87.4607 263.921,86.4607 264.5,84.5C 263.327,80.834 261.16,77.834 258,75.5C 257.109,72.5024 257.609,69.8357 259.5,67.5 Z"/></g>
<g><path style="opacity:1" fill="#326537" d="M 186.5,85.5 C 189.203,87.11 192.203,88.11 195.5,88.5C 192.167,88.5 188.833,88.5 185.5,88.5C 185.263,87.209 185.596,86.209 186.5,85.5 Z"/></g>
<g><path style="opacity:1" fill="#b9d255" d="M 45.5,82.5 C 54.1299,89.0708 63.7965,91.0708 74.5,88.5C 75.3764,88.3691 76.0431,88.7025 76.5,89.5C 75.3284,91.8228 75.3284,94.1561 76.5,96.5C 62.8276,100.746 50.8276,98.079 40.5,88.5C 42.0174,88.5106 43.1841,89.1772 44,90.5C 44.4497,88.481 45.283,86.6477 46.5,85C 45.7476,84.3292 45.4142,83.4959 45.5,82.5 Z"/></g>
</svg>
